<svg width="128" height="128" viewBox="0 0 128 128" fill="none" xmlns="http://www.w3.org/2000/svg">
<path d="M64 11.9824C51.3359 11.9829 39.0851 16.4897 29.4398 24.6963C19.7945 32.9029 13.384 44.2737 11.3554 56.7743C9.32673 69.2749 11.8123 82.0895 18.3674 92.9251C24.9225 103.761 35.1194 111.91 47.1334 115.916C49.8001 116.382 50.8001 114.783 50.8001 113.382C50.8001 112.116 50.7334 107.916 50.7334 103.449C37.3333 105.916 33.8667 100.183 32.8 97.1826C31.6164 94.2648 29.7401 91.6792 27.3333 89.6491C25.4666 88.6491 22.8 86.1824 27.2666 86.1159C28.9721 86.3009 30.6079 86.8944 32.0353 87.846C33.4628 88.7976 34.6398 90.0792 35.4667 91.5824C36.1961 92.8928 37.1769 94.0463 38.353 94.977C39.529 95.9077 40.8772 96.5971 42.3202 97.0059C43.7631 97.4146 45.2726 97.5346 46.762 97.359C48.2514 97.1833 49.6916 96.7155 50.9999 95.9824C51.2308 93.271 52.4391 90.736 54.4 88.8492C42.5333 87.5159 30.1333 82.9157 30.1333 62.5159C30.0584 57.2154 32.0143 52.087 35.6 48.1826C33.9695 43.5758 34.1603 38.5201 36.1333 34.0492C36.1333 34.0492 40.5998 32.6492 50.8 39.5159C59.5269 37.1158 68.7398 37.1158 77.4667 39.5159C87.6665 32.5826 92.1333 34.0492 92.1333 34.0492C94.1066 38.52 94.2974 43.5758 92.6667 48.1826C96.2631 52.0803 98.2208 57.2131 98.1333 62.5159C98.1333 82.9824 85.6665 87.5159 73.8 88.8492C75.0728 90.1393 76.0531 91.6882 76.6742 93.3906C77.2954 95.0931 77.5429 96.9093 77.4 98.7159C77.4 105.849 77.3333 111.582 77.3333 113.383C77.3333 114.783 78.3333 116.449 80.9999 115.916C92.9928 111.878 103.16 103.709 109.688 92.868C116.215 82.0268 118.677 69.2188 116.634 56.7303C114.591 44.2419 108.177 32.8857 98.5358 24.6891C88.8947 16.4926 76.6544 11.989 64 11.9824V11.9824Z" fill="#E5E5E5"/>
</svg>
