<svg width="128" height="128" viewBox="0 0 128 128" fill="none" xmlns="http://www.w3.org/2000/svg">
<path d="M63.9987 12.592C35.6248 12.592 12.6212 35.6089 12.6212 63.9991C12.6212 92.3903 35.624 115.408 63.9987 115.408C92.3744 115.408 115.379 92.3903 115.379 63.9991C115.378 35.6089 92.3744 12.592 63.9987 12.592ZM42.6794 35.7778C46.1743 35.7778 49.0091 38.3645 49.0091 41.5556C49.0091 44.7467 46.1743 47.3334 42.6794 47.3334C39.1828 47.3334 36.3498 44.7467 36.3498 41.5556C36.3498 38.3645 39.1828 35.7778 42.6794 35.7778ZM49.0571 85.1956H36.5505V52.5423H49.0571V85.1956V85.1956ZM91.5553 85.1956H78.9883V67.24C78.9883 65.1903 78.6081 63.7396 77.8503 62.888C77.0916 62.0383 76.0265 61.6116 74.6557 61.6116C73.1392 61.6116 71.9088 62.1858 70.9671 63.3343C70.0246 64.4827 69.5546 66.5423 69.5546 69.5147V85.1956H57.0472V52.5423H68.6929V57.8605C70.4332 55.6889 72.1958 54.136 73.9779 53.2027C75.7599 52.2703 77.9302 51.8045 80.4914 51.8045C83.9543 51.8045 86.663 52.8338 88.6201 54.8943C90.5754 56.9538 91.5544 60.136 91.5544 64.4409V85.1956H91.5553Z" fill="#E5E5E5"/>
</svg>
